<svg width="48" height="48" viewBox="0 0 48 48" fill="none" xmlns="http://www.w3.org/2000/svg">
<path d="M0 12C0 5.37259 5.37258 0 12 0H36C42.6274 0 48 5.37258 48 12V36.0013C48 42.6287 42.6274 48.0013 36 48.0013H12C5.37258 48.0013 0 42.6287 0 36.0013V12Z" fill="#0C0B0E"/>
<path d="M12 14.6667V13.3333C12 11.9188 12.5619 10.5623 13.5621 9.5621C14.5623 8.5619 15.9188 8 17.3333 8H19.2933C20.1028 7.99927 20.8934 8.2448 21.56 8.704L24.0733 10.4373C24.296 10.5881 24.5591 10.6681 24.828 10.6667H30.6667C31.8456 10.6711 32.9899 11.066 33.9206 11.7897C34.8513 12.5134 35.5159 13.5251 35.8107 14.6667H12ZM38.6667 34.6667H27.7547C27.5555 34.109 27.2349 33.6025 26.8162 33.1838C26.3975 32.7651 25.891 32.4445 25.3333 32.2453V28H30.6667C32.0812 28 33.4377 27.4381 34.4379 26.4379C35.4381 25.4377 36 24.0812 36 22.6667V17.3333H12V22.6667C12 24.0812 12.5619 25.4377 13.5621 26.4379C14.5623 27.4381 15.9188 28 17.3333 28H22.6667V32.2453C22.109 32.4445 21.6025 32.7651 21.1838 33.1838C20.7651 33.6025 20.4445 34.109 20.2453 34.6667H9.33333C8.97971 34.6667 8.64057 34.8071 8.39052 35.0572C8.14048 35.3072 8 35.6464 8 36C8 36.3536 8.14048 36.6928 8.39052 36.9428C8.64057 37.1929 8.97971 37.3333 9.33333 37.3333H20.2453C20.5169 38.1127 21.0242 38.7883 21.697 39.2664C22.3698 39.7444 23.1747 40.0013 24 40.0013C24.8253 40.0013 25.6302 39.7444 26.303 39.2664C26.9758 38.7883 27.4831 38.1127 27.7547 37.3333H38.6667C39.0203 37.3333 39.3594 37.1929 39.6095 36.9428C39.8595 36.6928 40 36.3536 40 36C40 35.6464 39.8595 35.3072 39.6095 35.0572C39.3594 34.8071 39.0203 34.6667 38.6667 34.6667Z" fill="white"/>
</svg>
