<svg width="48" height="48" viewBox="0 0 48 48" fill="none" xmlns="http://www.w3.org/2000/svg">
<path d="M0 12C0 5.37259 5.37258 0 12 0H36C42.6274 0 48 5.37258 48 12V36C48 42.6274 42.6274 48 36 48H12C5.37258 48 0 42.6274 0 36V12Z" fill="#0C0B0E"/>
<path d="M34.6667 22C33.7678 22.0312 32.8744 22.1531 32 22.364C31.9201 20.6495 31.1829 19.0318 29.9414 17.8466C28.6999 16.6615 27.0496 16.0002 25.3333 16H24.9707C25.1818 15.1257 25.3033 14.2322 25.3333 13.3333C25.3333 11.9188 24.7714 10.5623 23.7712 9.5621C22.771 8.5619 21.4145 8 20 8C18.5855 8 17.229 8.5619 16.2288 9.5621C15.2286 10.5623 14.6667 11.9188 14.6667 13.3333C14.6967 14.2322 14.8182 15.1257 15.0293 16H14.6667C12.8986 16 11.2029 16.7024 9.95262 17.9526C8.70238 19.2029 8 20.8986 8 22.6667L8 33.3333C8 34.2088 8.17244 35.0757 8.50747 35.8846C8.8425 36.6934 9.33356 37.4283 9.95262 38.0474C11.2029 39.2976 12.8986 40 14.6667 40H16.2987C16.4573 40.0007 16.6139 39.9646 16.7563 39.8948C16.8987 39.8249 17.023 39.7231 17.1196 39.5972C17.2161 39.4714 17.2823 39.3249 17.3129 39.1693C17.3435 39.0136 17.3377 38.853 17.296 38.7C16.8307 37.0213 16 36 16 34.6667C16 33.6058 16.4214 32.5884 17.1716 31.8382C17.9217 31.0881 18.9391 30.6667 20 30.6667C21.0609 30.6667 22.0783 31.0881 22.8284 31.8382C23.5786 32.5884 24 33.6058 24 34.6667C24 36 23.1573 37.024 22.7027 38.7053C22.6619 38.858 22.6569 39.018 22.688 39.173C22.719 39.3279 22.7853 39.4736 22.8818 39.5988C22.9782 39.724 23.1022 39.8253 23.2441 39.8949C23.386 39.9645 23.542 40.0004 23.7 40H25.3333C26.2088 40 27.0757 39.8276 27.8846 39.4925C28.6934 39.1575 29.4283 38.6664 30.0474 38.0474C30.6664 37.4283 31.1575 36.6934 31.4925 35.8846C31.8276 35.0757 32 34.2088 32 33.3333V32.304C32.8744 32.5143 33.7678 32.6358 34.6667 32.6667C36.0812 32.6667 37.4377 32.1048 38.4379 31.1046C39.4381 30.1044 40 28.7478 40 27.3333C40 25.9188 39.4381 24.5623 38.4379 23.5621C37.4377 22.5619 36.0812 22 34.6667 22Z" fill="white"/>
</svg>
