<svg width="48" height="48" viewBox="0 0 48 48" fill="none" xmlns="http://www.w3.org/2000/svg">
<path d="M0 12C0 5.37258 5.37258 0 12 0H36C42.6274 0 48 5.37258 48 12V36C48 42.6274 42.6274 48 36 48H12C5.37258 48 0 42.6274 0 36V12Z" fill="#0C0B0E"/>
<path d="M27 17.3333V8.61333C28.2133 9.08 29.3333 9.78667 30.28 10.7333L34.92 15.3867C35.8667 16.3333 36.5733 17.4533 37.04 18.6667H28.32C27.5867 18.6667 26.9867 18.0667 26.9867 17.3333H27ZM29 26.6667H19.6667C19.2933 26.6667 19 26.96 19 27.3333V31.3333C19 31.7067 19.2933 32 19.6667 32H29C29.3733 32 29.6667 31.7067 29.6667 31.3333V27.3333C29.6667 26.96 29.3733 26.6667 29 26.6667ZM37.6667 21.9867V33.3333C37.6667 37.0133 34.68 40 31 40H17.6667C13.9867 40 11 37.0133 11 33.3333V14.6667C11 10.9867 13.9867 8 17.6667 8H23.68C23.8933 8 24.1067 8.01333 24.3333 8.02667V17.3333C24.3333 19.5333 26.1333 21.3333 28.3333 21.3333H37.64C37.6533 21.5467 37.6667 21.76 37.6667 21.9867ZM16.3333 20C16.3333 20.7333 16.9333 21.3333 17.6667 21.3333H20.3333C21.0667 21.3333 21.6667 20.7333 21.6667 20C21.6667 19.2667 21.0667 18.6667 20.3333 18.6667H17.6667C16.9333 18.6667 16.3333 19.2667 16.3333 20ZM32.3333 27.3333C32.3333 25.4933 30.84 24 29 24H19.6667C17.8267 24 16.3333 25.4933 16.3333 27.3333V31.3333C16.3333 33.1733 17.8267 34.6667 19.6667 34.6667H29C30.84 34.6667 32.3333 33.1733 32.3333 31.3333V27.3333Z" fill="white"/>
</svg>
