<svg width="46" height="48" viewBox="0 0 46 48" fill="none" xmlns="http://www.w3.org/2000/svg">
<path d="M0 12.0012C0 5.3738 5.37258 0.0012207 12 0.0012207H33.3333C39.9608 0.0012207 45.3333 5.3738 45.3333 12.0012V36.0012C45.3333 42.6286 39.9608 48.0012 33.3333 48.0012H12C5.37257 48.0012 0 42.6286 0 36.0012V12.0012Z" fill="#0C0B0E"/>
<path d="M29.3333 17.3346C29.3333 17.6882 29.1929 18.0273 28.9428 18.2774C28.6928 18.5274 28.3536 18.6679 28 18.6679H17.3333C16.9797 18.6679 16.6406 18.5274 16.3905 18.2774C16.1405 18.0273 16 17.6882 16 17.3346C16 16.9809 16.1405 16.6418 16.3905 16.3917C16.6406 16.1417 16.9797 16.0012 17.3333 16.0012H28C28.3536 16.0012 28.6928 16.1417 28.9428 16.3917C29.1929 16.6418 29.3333 16.9809 29.3333 17.3346ZM37.3333 14.6679V33.3346C37.3312 35.102 36.6282 36.7965 35.3784 38.0463C34.1286 39.296 32.4341 39.9991 30.6667 40.0012H14.6667C12.8992 39.9991 11.2047 39.296 9.95496 38.0463C8.70518 36.7965 8.00212 35.102 8 33.3346V14.6679C8.00212 12.9004 8.70518 11.206 9.95496 9.95618C11.2047 8.7064 12.8992 8.00334 14.6667 8.00122H30.6667C32.4341 8.00334 34.1286 8.7064 35.3784 9.95618C36.6282 11.206 37.3312 12.9004 37.3333 14.6679ZM16 32.0012C16 31.7375 15.9218 31.4797 15.7753 31.2605C15.6288 31.0412 15.4205 30.8703 15.1769 30.7694C14.9333 30.6685 14.6652 30.6421 14.4065 30.6935C14.1479 30.745 13.9103 30.8719 13.7239 31.0584C13.5374 31.2449 13.4104 31.4825 13.359 31.7411C13.3075 31.9997 13.3339 32.2678 13.4348 32.5115C13.5357 32.7551 13.7066 32.9633 13.9259 33.1098C14.1452 33.2564 14.403 33.3346 14.6667 33.3346C15.0203 33.3346 15.3594 33.1941 15.6095 32.944C15.8595 32.694 16 32.3548 16 32.0012ZM16 26.6679C16 26.4042 15.9218 26.1464 15.7753 25.9271C15.6288 25.7079 15.4205 25.537 15.1769 25.436C14.9333 25.3351 14.6652 25.3087 14.4065 25.3602C14.1479 25.4116 13.9103 25.5386 13.7239 25.7251C13.5374 25.9115 13.4104 26.1491 13.359 26.4078C13.3075 26.6664 13.3339 26.9345 13.4348 27.1781C13.5357 27.4218 13.7066 27.63 13.9259 27.7765C14.1452 27.923 14.403 28.0012 14.6667 28.0012C15.0203 28.0012 15.3594 27.8607 15.6095 27.6107C15.8595 27.3606 16 27.0215 16 26.6679ZM21.3333 32.0012C21.3333 31.7375 21.2551 31.4797 21.1086 31.2605C20.9621 31.0412 20.7539 30.8703 20.5102 30.7694C20.2666 30.6685 19.9985 30.6421 19.7399 30.6935C19.4812 30.745 19.2437 30.8719 19.0572 31.0584C18.8707 31.2449 18.7437 31.4825 18.6923 31.7411C18.6408 31.9997 18.6672 32.2678 18.7682 32.5115C18.8691 32.7551 19.04 32.9633 19.2592 33.1098C19.4785 33.2564 19.7363 33.3346 20 33.3346C20.3536 33.3346 20.6928 33.1941 20.9428 32.944C21.1929 32.694 21.3333 32.3548 21.3333 32.0012ZM21.3333 26.6679C21.3333 26.4042 21.2551 26.1464 21.1086 25.9271C20.9621 25.7079 20.7539 25.537 20.5102 25.436C20.2666 25.3351 19.9985 25.3087 19.7399 25.3602C19.4812 25.4116 19.2437 25.5386 19.0572 25.7251C18.8707 25.9115 18.7437 26.1491 18.6923 26.4078C18.6408 26.6664 18.6672 26.9345 18.7682 27.1781C18.8691 27.4218 19.04 27.63 19.2592 27.7765C19.4785 27.923 19.7363 28.0012 20 28.0012C20.3536 28.0012 20.6928 27.8607 20.9428 27.6107C21.1929 27.3606 21.3333 27.0215 21.3333 26.6679ZM32 32.0012C32 31.6476 31.8595 31.3085 31.6095 31.0584C31.3594 30.8084 31.0203 30.6679 30.6667 30.6679H25.3333C24.9797 30.6679 24.6406 30.8084 24.3905 31.0584C24.1405 31.3085 24 31.6476 24 32.0012C24 32.3548 24.1405 32.694 24.3905 32.944C24.6406 33.1941 24.9797 33.3346 25.3333 33.3346H30.6667C31.0203 33.3346 31.3594 33.1941 31.6095 32.944C31.8595 32.694 32 32.3548 32 32.0012ZM25.3333 28.0012C25.597 28.0012 25.8548 27.923 26.0741 27.7765C26.2934 27.63 26.4643 27.4218 26.5652 27.1781C26.6661 26.9345 26.6925 26.6664 26.641 26.4078C26.5896 26.1491 26.4626 25.9115 26.2761 25.7251C26.0897 25.5386 25.8521 25.4116 25.5935 25.3602C25.3348 25.3087 25.0667 25.3351 24.8231 25.436C24.5795 25.537 24.3712 25.7079 24.2247 25.9271C24.0782 26.1464 24 26.4042 24 26.6679C24 27.0215 24.1405 27.3606 24.3905 27.6107C24.6406 27.8607 24.9797 28.0012 25.3333 28.0012ZM32 26.6679C32 26.4042 31.9218 26.1464 31.7753 25.9271C31.6288 25.7079 31.4205 25.537 31.1769 25.436C30.9333 25.3351 30.6652 25.3087 30.4065 25.3602C30.1479 25.4116 29.9103 25.5386 29.7239 25.7251C29.5374 25.9115 29.4104 26.1491 29.359 26.4078C29.3075 26.6664 29.3339 26.9345 29.4348 27.1781C29.5357 27.4218 29.7066 27.63 29.9259 27.7765C30.1452 27.923 30.403 28.0012 30.6667 28.0012C31.0203 28.0012 31.3594 27.8607 31.6095 27.6107C31.8595 27.3606 32 27.0215 32 26.6679ZM32 17.3346C32 16.2737 31.5786 15.2563 30.8284 14.5061C30.0783 13.756 29.0609 13.3346 28 13.3346H17.3333C16.2725 13.3346 15.2551 13.756 14.5049 14.5061C13.7548 15.2563 13.3333 16.2737 13.3333 17.3346C13.3333 18.3954 13.7548 19.4128 14.5049 20.163C15.2551 20.9131 16.2725 21.3346 17.3333 21.3346H28C29.0609 21.3346 30.0783 20.9131 30.8284 20.163C31.5786 19.4128 32 18.3954 32 17.3346Z" fill="white"/>
</svg>
