<svg width="48" height="48" viewBox="0 0 48 48" fill="none" xmlns="http://www.w3.org/2000/svg">
<rect width="48" height="48" rx="12" fill="#0C0B0E"/>
<path d="M20 20H10.6667C9.196 20 8 18.804 8 17.3333V14.6667C8 10.9907 10.9907 8 14.6667 8H20C21.4707 8 22.6667 9.196 22.6667 10.6667V17.3333C22.6667 18.804 21.4707 20 20 20ZM33.3333 40H28C26.5293 40 25.3333 38.804 25.3333 37.3333V30.6667C25.3333 29.196 26.5293 28 28 28H37.3333C38.804 28 40 29.196 40 30.6667V33.3333C40 37.0093 37.0093 40 33.3333 40ZM37.3333 25.3333H28C26.5293 25.3333 25.3333 24.1373 25.3333 22.6667V10.6667C25.3333 9.196 26.5293 8 28 8H33.3333C37.0093 8 40 10.9907 40 14.6667V22.6667C40 24.1373 38.804 25.3333 37.3333 25.3333ZM20 40H14.6667C10.9907 40 8 37.0093 8 33.3333V25.3333C8 23.8627 9.196 22.6667 10.6667 22.6667H20C21.4707 22.6667 22.6667 23.8627 22.6667 25.3333V37.3333C22.6667 38.804 21.4707 40 20 40Z" fill="white"/>
</svg>
