<svg width="48" height="48" viewBox="0 0 48 48" fill="none" xmlns="http://www.w3.org/2000/svg">
<path d="M0 12C0 5.37258 5.37258 0 12 0H36C42.6274 0 48 5.37258 48 12V36C48 42.6274 42.6274 48 36 48H12C5.37258 48 0 42.6274 0 36V12Z" fill="#0C0B0E"/>
<path d="M33.3333 9.33325H14.6667C10.9907 9.33325 8 12.3239 8 15.9999V18.6666H40V15.9999C40 12.3239 37.0093 9.33325 33.3333 9.33325ZM14 15.9999C12.896 15.9999 12 15.1039 12 13.9999C12 12.8959 12.896 11.9999 14 11.9999C15.104 11.9999 16 12.8959 16 13.9999C16 15.1039 15.104 15.9999 14 15.9999ZM19.3333 15.9999C18.2293 15.9999 17.3333 15.1039 17.3333 13.9999C17.3333 12.8959 18.2293 11.9999 19.3333 11.9999C20.4373 11.9999 21.3333 12.8959 21.3333 13.9999C21.3333 15.1039 20.4373 15.9999 19.3333 15.9999ZM24.6667 15.9999C23.5627 15.9999 22.6667 15.1039 22.6667 13.9999C22.6667 12.8959 23.5627 11.9999 24.6667 11.9999C25.7707 11.9999 26.6667 12.8959 26.6667 13.9999C26.6667 15.1039 25.7707 15.9999 24.6667 15.9999ZM8 31.9999C8 35.6759 10.9907 38.6666 14.6667 38.6666H33.3333C37.0093 38.6666 40 35.6759 40 31.9999V21.3333H8V31.9999ZM29.356 26.6666C29.716 26.6666 30.0147 26.9426 30.044 27.3026L30.3267 30.8773L31.3267 28.9533C31.584 28.4573 32.2933 28.4573 32.5507 28.9533L33.5507 30.8773L33.8307 27.3026C33.8587 26.9439 34.1587 26.6666 34.5187 26.6666H34.5213C34.9253 26.6666 35.2427 27.0133 35.208 27.4159L34.7893 32.2946C34.748 32.8813 34.34 33.3333 33.848 33.3333C33.5227 33.3333 33.22 33.1319 33.0467 32.7999L31.9387 30.6666L30.8307 32.7999C30.6587 33.1319 30.356 33.3333 30.0293 33.3333C29.5387 33.3333 29.1293 32.8813 29.088 32.2946L28.6693 27.4159C28.6347 27.0133 28.952 26.6666 29.356 26.6666ZM21.356 26.6666C21.716 26.6666 22.0147 26.9426 22.044 27.3026L22.3267 30.8773L23.3267 28.9533C23.584 28.4573 24.2933 28.4573 24.5507 28.9533L25.5507 30.8773L25.88 26.6666H26.5213C26.9253 26.6666 27.2427 27.0133 27.208 27.4159L26.7893 32.2946C26.748 32.8813 26.34 33.3333 25.848 33.3333C25.5227 33.3333 25.22 33.1319 25.0467 32.7999L23.9387 30.6666L22.8307 32.7999C22.6587 33.1319 22.356 33.3333 22.0293 33.3333C21.5387 33.3333 21.1293 32.8813 21.088 32.2946L20.6693 27.4159C20.6347 27.0133 20.952 26.6666 21.356 26.6666ZM13.356 26.6666C13.716 26.6666 14.0147 26.9426 14.044 27.3026L14.3267 30.8773L15.3267 28.9533C15.584 28.4573 16.2933 28.4573 16.5507 28.9533L17.5507 30.8773L17.8307 27.3026C17.8587 26.9439 18.1587 26.6666 18.5187 26.6666H18.5213C18.9253 26.6666 19.2427 27.0133 19.208 27.4159L18.7893 32.2946C18.748 32.8813 18.34 33.3333 17.848 33.3333C17.5227 33.3333 17.22 33.1319 17.0467 32.7999L15.9387 30.6666L14.8307 32.7999C14.6587 33.1319 14.356 33.3333 14.0293 33.3333C13.5387 33.3333 13.1293 32.8813 13.088 32.2946L12.6693 27.4159C12.6347 27.0133 12.952 26.6666 13.356 26.6666Z" fill="white"/>
</svg>
