<svg width="48" height="48" viewBox="0 0 48 48" fill="none" xmlns="http://www.w3.org/2000/svg">
<path d="M0 12C0 5.37258 5.37258 0 12 0H36C42.6274 0 48 5.37258 48 12V36C48 42.6274 42.6274 48 36 48H12C5.37258 48 0 42.6274 0 36V12Z" fill="#0C0B0E"/>
<path d="M24.0003 29.3314C26.9447 29.3314 29.3316 26.9445 29.3316 24C29.3316 21.0556 26.9447 18.6687 24.0003 18.6687C21.0559 18.6687 18.6689 21.0556 18.6689 24C18.6689 26.9445 21.0559 29.3314 24.0003 29.3314Z" fill="white"/>
<path d="M39.0224 20.56C36.9552 17.1933 32.2529 11.5447 24 11.5447C15.747 11.5447 11.0448 17.1933 8.97754 20.56C7.67415 22.6682 7.67415 25.3319 8.97754 27.4402C11.0448 30.8069 15.747 36.4555 24 36.4555C32.2529 36.4555 36.9552 30.8069 39.0224 27.4402C40.3258 25.3319 40.3258 22.6682 39.0224 20.56ZM24 31.9971C19.5834 31.9971 16.0029 28.4167 16.0029 24.0001C16.0029 19.5834 19.5834 16.003 24 16.003C28.4166 16.003 31.997 19.5834 31.997 24.0001C31.9926 28.4149 28.4148 31.9927 24 31.9971Z" fill="white"/>
</svg>
