<svg width="48" height="48" viewBox="0 0 48 48" fill="none" xmlns="http://www.w3.org/2000/svg">
<path d="M0 12C0 5.37258 5.37258 0 12 0H36C42.6274 0 48 5.37258 48 12V36C48 42.6274 42.6274 48 36 48H12C5.37258 48 0 42.6274 0 36V12Z" fill="#0C0B0E"/>
<g clip-path="url(#clip0_2048_32)">
<path d="M18 25.3333C16.8133 25.3333 15.6533 24.9814 14.6666 24.3222C13.6799 23.6629 12.9108 22.7258 12.4567 21.6294C12.0026 20.5331 11.8838 19.3267 12.1153 18.1628C12.3468 16.9989 12.9182 15.9298 13.7574 15.0907C14.5965 14.2516 15.6656 13.6801 16.8295 13.4486C17.9933 13.2171 19.1997 13.3359 20.2961 13.7901C21.3925 14.2442 22.3295 15.0132 22.9888 15.9999C23.6481 16.9866 24 18.1466 24 19.3333C23.9982 20.9241 23.3655 22.4492 22.2407 23.574C21.1159 24.6989 19.5908 25.3316 18 25.3333ZM26.6667 40H9.33333C8.97971 40 8.64057 39.8595 8.39052 39.6095C8.14048 39.3594 8 39.0203 8 38.6667V38C8 35.3478 9.05357 32.8043 10.9289 30.9289C12.8043 29.0536 15.3478 28 18 28C20.6522 28 23.1957 29.0536 25.0711 30.9289C26.9464 32.8043 28 35.3478 28 38V38.6667C28 39.0203 27.8595 39.3594 27.6095 39.6095C27.3594 39.8595 27.0203 40 26.6667 40ZM31.3333 20C30.1466 20 28.9866 19.6481 27.9999 18.9888C27.0132 18.3295 26.2442 17.3925 25.7901 16.2961C25.3359 15.1997 25.2171 13.9933 25.4486 12.8295C25.6801 11.6656 26.2516 10.5965 27.0907 9.75736C27.9298 8.91825 28.9989 8.3468 30.1628 8.11529C31.3267 7.88378 32.5331 8.0026 33.6294 8.45673C34.7258 8.91085 35.6629 9.67989 36.3222 10.6666C36.9814 11.6533 37.3333 12.8133 37.3333 14C37.3316 15.5908 36.6989 17.1159 35.574 18.2407C34.4492 19.3655 32.9241 19.9982 31.3333 20ZM29.4387 22.6947C28.1968 22.8613 27.0028 23.2825 25.9313 23.9321C24.8599 24.5816 23.9341 25.4454 23.212 26.4693C26.1999 27.8262 28.5475 30.2856 29.764 33.3333H38.6667C39.0203 33.3333 39.3594 33.1929 39.6095 32.9428C39.8595 32.6928 40 32.3536 40 32V31.9493C39.9986 30.6203 39.7137 29.3068 39.1644 28.0966C38.615 26.8864 37.8137 25.8073 36.8142 24.9314C35.8146 24.0555 34.6396 23.4029 33.3678 23.0172C32.0959 22.6315 30.7564 22.5215 29.4387 22.6947Z" fill="white"/>
</g>
<defs>
<clipPath id="clip0_2048_32">
<rect width="32" height="32" fill="white" transform="translate(8 8)"/>
</clipPath>
</defs>
</svg>
