<svg width="48" height="48" viewBox="0 0 48 48" fill="none" xmlns="http://www.w3.org/2000/svg">
<path d="M0 12C0 5.37258 5.37258 0 12 0H36C42.6274 0 48 5.37258 48 12V36C48 42.6274 42.6274 48 36 48H12C5.37258 48 0 42.6274 0 36V12Z" fill="#0C0B0E"/>
<path d="M8 31.9999C8 35.6759 10.9907 38.6666 14.6667 38.6666H33.3333C37.0093 38.6666 40 35.6759 40 31.9999V21.3333H8V31.9999ZM26.6667 25.3333H32C32.7373 25.3333 33.3333 25.9306 33.3333 26.6666C33.3333 27.4026 32.7373 27.9999 32 27.9999H26.6667C25.9293 27.9999 25.3333 27.4039 25.3333 26.6666C25.3333 25.9293 25.9293 25.3333 26.6667 25.3333ZM26.6667 31.9999H32C32.7373 31.9999 33.3333 32.5959 33.3333 33.3333C33.3333 34.0706 32.7373 34.6666 32 34.6666H26.6667C25.9293 34.6666 25.3333 34.0706 25.3333 33.3333C25.3333 32.5959 25.9293 31.9999 26.6667 31.9999ZM14.7027 25.3266C15.2093 24.7906 16.0533 24.7693 16.5867 25.2746L17.94 26.5546L20.3907 24.1039C20.912 23.5826 21.7547 23.5826 22.276 24.1039C22.7973 24.6253 22.7973 25.4679 22.276 25.9893L19.6333 28.6319C19.164 29.1013 18.5547 29.3359 17.9453 29.3359C17.3573 29.3359 16.768 29.1173 16.3053 28.6786L14.7547 27.2079C14.22 26.7026 14.1973 25.8586 14.704 25.3239L14.7027 25.3266ZM14.7027 31.9933C15.2093 31.4586 16.0533 31.4359 16.5867 31.9426L17.94 33.2226L20.3907 30.7719C20.912 30.2506 21.7547 30.2506 22.276 30.7719C22.7973 31.2933 22.7973 32.1359 22.276 32.6573L19.6333 35.2999C19.164 35.7693 18.5547 36.0039 17.9453 36.0039C17.3573 36.0039 16.768 35.7853 16.3053 35.3466L14.7547 33.8759C14.22 33.3706 14.1973 32.5253 14.704 31.9919L14.7027 31.9933ZM33.3333 9.33325H14.6667C10.9907 9.33325 8 12.3239 8 15.9999V18.6666H40V15.9999C40 12.3239 37.0093 9.33325 33.3333 9.33325ZM14 15.9999C12.896 15.9999 12 15.1039 12 13.9999C12 12.8959 12.896 11.9999 14 11.9999C15.104 11.9999 16 12.8959 16 13.9999C16 15.1039 15.104 15.9999 14 15.9999ZM19.3333 15.9999C18.2293 15.9999 17.3333 15.1039 17.3333 13.9999C17.3333 12.8959 18.2293 11.9999 19.3333 11.9999C20.4373 11.9999 21.3333 12.8959 21.3333 13.9999C21.3333 15.1039 20.4373 15.9999 19.3333 15.9999Z" fill="white"/>
</svg>
