<svg width="16" height="17" viewBox="0 0 16 17" fill="none" xmlns="http://www.w3.org/2000/svg">
<path d="M9.87407 10.3061L12.9341 7.24609C13.0582 7.12118 13.1279 6.95221 13.1279 6.77609C13.1279 6.59996 13.0582 6.43099 12.9341 6.30609C12.8721 6.2436 12.7984 6.194 12.7171 6.16016C12.6359 6.12631 12.5487 6.10889 12.4607 6.10889C12.3727 6.10889 12.2856 6.12631 12.2044 6.16016C12.1231 6.194 12.0494 6.2436 11.9874 6.30609L8.93407 9.37275C8.87209 9.43524 8.79836 9.48483 8.71712 9.51868C8.63588 9.55253 8.54874 9.56995 8.46073 9.56995C8.37273 9.56995 8.28559 9.55253 8.20435 9.51868C8.12311 9.48483 8.04938 9.43524 7.9874 9.37275L4.93407 6.30609C4.80942 6.18055 4.64 6.10967 4.46309 6.10905C4.28618 6.10842 4.11627 6.1781 3.99074 6.30275C3.8652 6.4274 3.79432 6.59682 3.7937 6.77373C3.79307 6.95064 3.86275 7.12055 3.9874 7.24609L7.0474 10.3061C7.4224 10.6806 7.93073 10.891 8.46073 10.891C8.99074 10.891 9.49907 10.6806 9.87407 10.3061Z" fill="#004EFF"/>
</svg>
