<svg width="24" height="24" viewBox="0 0 24 24" fill="none" xmlns="http://www.w3.org/2000/svg">
<path d="M13.7061 14.7099L18.2961 10.1199C18.4824 9.9325 18.5869 9.67905 18.5869 9.41486C18.5869 9.15067 18.4824 8.89722 18.2961 8.70986C18.2032 8.61613 18.0926 8.54174 17.9707 8.49097C17.8488 8.4402 17.7181 8.41406 17.5861 8.41406C17.4541 8.41406 17.3234 8.4402 17.2015 8.49097C17.0797 8.54174 16.9691 8.61613 16.8761 8.70986L12.2961 13.3099C12.2032 13.4036 12.0926 13.478 11.9707 13.5288C11.8488 13.5795 11.7181 13.6057 11.5861 13.6057C11.4541 13.6057 11.3234 13.5795 11.2015 13.5288C11.0797 13.478 10.9691 13.4036 10.8761 13.3099L6.29612 8.70986C6.10914 8.52156 5.85502 8.41524 5.58966 8.4143C5.32429 8.41337 5.06943 8.51788 4.88112 8.70486C4.69282 8.89184 4.5865 9.14596 4.58556 9.41133C4.58463 9.67669 4.68915 9.93156 4.87612 10.1199L9.46612 14.7099C10.0286 15.2717 10.7911 15.5872 11.5861 15.5872C12.3811 15.5872 13.1436 15.2717 13.7061 14.7099Z" fill="#004EFF"/>
</svg>
