<svg width="24" height="24" viewBox="0 0 24 24" fill="none" xmlns="http://www.w3.org/2000/svg">
<path d="M13.7061 9.29112L18.2961 13.8811C18.4824 14.0685 18.5869 14.3219 18.5869 14.5861C18.5869 14.8503 18.4824 15.1038 18.2961 15.2911C18.2032 15.3848 18.0926 15.4592 17.9707 15.51C17.8488 15.5608 17.7181 15.5869 17.5861 15.5869C17.4541 15.5869 17.3234 15.5608 17.2015 15.51C17.0797 15.4592 16.9691 15.3848 16.8761 15.2911L12.2961 10.6911C12.2032 10.5974 12.0926 10.523 11.9707 10.4722C11.8488 10.4215 11.7181 10.3953 11.5861 10.3953C11.4541 10.3953 11.3234 10.4215 11.2015 10.4722C11.0797 10.523 10.9691 10.5974 10.8761 10.6911L6.29612 15.2911C6.10914 15.4794 5.85502 15.5857 5.58966 15.5867C5.32429 15.5876 5.06943 15.4831 4.88112 15.2961C4.69282 15.1091 4.5865 14.855 4.58556 14.5897C4.58463 14.3243 4.68915 14.0694 4.87612 13.8811L9.46612 9.29112C10.0286 8.72931 10.7911 8.41375 11.5861 8.41375C12.3811 8.41375 13.1436 8.72931 13.7061 9.29112Z" fill="#004EFF"/>
</svg>
