<svg width="48" height="48" viewBox="0 0 48 48" fill="none" xmlns="http://www.w3.org/2000/svg">
<path d="M0 12C0 5.37258 5.37258 0 12 0H36C42.6274 0 48 5.37258 48 12V36C48 42.6274 42.6274 48 36 48H12C5.37258 48 0 42.6274 0 36V12Z" fill="#0C0B0E"/>
<g clip-path="url(#clip0_2048_67)">
<path d="M28.6363 32.8133C28.6363 31.1026 27.5589 30.1079 25.4936 28.3546C25.0269 27.9546 24.5229 27.5306 24.0029 27.0586C23.4096 27.6039 22.8456 28.0839 22.3283 28.5253C20.2669 30.2666 19.3643 31.1186 19.3643 32.8133C19.3643 34.0428 19.8527 35.222 20.7221 36.0914C21.5915 36.9608 22.7707 37.4493 24.0003 37.4493C25.2298 37.4493 26.409 36.9608 27.2784 36.0914C28.1478 35.222 28.6363 34.0428 28.6363 32.8133Z" fill="white"/>
<path d="M29.8776 13.38C28.2776 12.0213 26.6242 10.6173 24.9522 8.94667L24.0002 8L23.0669 8.948C20.0616 11.964 18.6402 16.596 18.0242 19.3747C17.5515 18.6427 17.2008 17.839 16.9856 16.9947L16.4162 14.812L14.7722 16.3547C11.8936 19.0587 9.97223 21.74 9.97223 26.0333C9.94456 29.1314 10.953 32.1498 12.8373 34.6091C14.7216 37.0683 17.3737 38.8273 20.3722 39.6067C21.1257 39.7975 21.8929 39.9291 22.6669 40C20.9886 39.6872 19.4724 38.7978 18.3804 37.4855C17.2884 36.1732 16.6894 34.5205 16.6869 32.8133C16.6869 29.8133 18.4962 28.28 20.5909 26.4907C21.3389 25.8547 22.1909 25.1333 23.0509 24.268L24.0002 23.324L24.9442 24.268C25.7122 25.036 26.4802 25.6867 27.2229 26.3187C29.3242 28.1013 31.3082 29.7853 31.3082 32.8133C31.3061 34.5138 30.7119 36.1604 29.6277 37.4704C28.5435 38.7804 27.037 39.672 25.3669 39.992C28.8343 39.6556 32.0521 38.0397 34.3927 35.4594C36.7333 32.8792 38.0289 29.5197 38.0269 26.036C38.0269 20.3 34.2496 17.0933 29.8776 13.38Z" fill="white"/>
</g>
<defs>
<clipPath id="clip0_2048_67">
<rect width="32" height="32" fill="white" transform="translate(8 8)"/>
</clipPath>
</defs>
</svg>
