<svg width="48" height="48" viewBox="0 0 48 48" fill="none" xmlns="http://www.w3.org/2000/svg">
<path d="M0 12C0 5.37258 5.37258 0 12 0H36C42.6274 0 48 5.37258 48 12V36C48 42.6274 42.6274 48 36 48H12C5.37258 48 0 42.6274 0 36V12Z" fill="#0C0B0E"/>
<path d="M8 32.0002C8 35.6762 10.9907 38.6668 14.6667 38.6668H33.3333C37.0093 38.6668 40 35.6762 40 32.0002V21.3335H8V32.0002ZM26.6667 25.3335H32C32.7373 25.3335 33.3333 25.9308 33.3333 26.6668C33.3333 27.4028 32.7373 28.0002 32 28.0002H26.6667C25.9293 28.0002 25.3333 27.4042 25.3333 26.6668C25.3333 25.9295 25.9293 25.3335 26.6667 25.3335ZM26.6667 32.0002H32C32.7373 32.0002 33.3333 32.5962 33.3333 33.3335C33.3333 34.0708 32.7373 34.6668 32 34.6668H26.6667C25.9293 34.6668 25.3333 34.0708 25.3333 33.3335C25.3333 32.5962 25.9293 32.0002 26.6667 32.0002ZM14.7027 25.3268C15.2093 24.7908 16.0533 24.7695 16.5867 25.2748L17.94 26.5548L20.3907 24.1042C20.912 23.5828 21.7547 23.5828 22.276 24.1042C22.7973 24.6255 22.7973 25.4682 22.276 25.9895L19.6333 28.6322C19.164 29.1015 18.5547 29.3362 17.9453 29.3362C17.3573 29.3362 16.768 29.1175 16.3053 28.6788L14.7547 27.2082C14.22 26.7028 14.1973 25.8588 14.704 25.3242L14.7027 25.3268ZM14.7027 31.9935C15.2093 31.4588 16.0533 31.4362 16.5867 31.9428L17.94 33.2228L20.3907 30.7722C20.912 30.2508 21.7547 30.2508 22.276 30.7722C22.7973 31.2935 22.7973 32.1362 22.276 32.6575L19.6333 35.3002C19.164 35.7695 18.5547 36.0042 17.9453 36.0042C17.3573 36.0042 16.768 35.7855 16.3053 35.3468L14.7547 33.8762C14.22 33.3708 14.1973 32.5255 14.704 31.9922L14.7027 31.9935ZM33.3333 9.3335H14.6667C10.9907 9.3335 8 12.3242 8 16.0002V18.6668H40V16.0002C40 12.3242 37.0093 9.3335 33.3333 9.3335ZM14 16.0002C12.896 16.0002 12 15.1042 12 14.0002C12 12.8962 12.896 12.0002 14 12.0002C15.104 12.0002 16 12.8962 16 14.0002C16 15.1042 15.104 16.0002 14 16.0002ZM19.3333 16.0002C18.2293 16.0002 17.3333 15.1042 17.3333 14.0002C17.3333 12.8962 18.2293 12.0002 19.3333 12.0002C20.4373 12.0002 21.3333 12.8962 21.3333 14.0002C21.3333 15.1042 20.4373 16.0002 19.3333 16.0002Z" fill="white"/>
</svg>
