<svg width="48" height="48" viewBox="0 0 48 48" fill="none" xmlns="http://www.w3.org/2000/svg">
<path d="M0 12C0 5.37258 5.37258 0 12 0H36C42.6274 0 48 5.37258 48 12V36C48 42.6274 42.6274 48 36 48H12C5.37258 48 0 42.6274 0 36V12Z" fill="#0C0B0E"/>
<path d="M27.9997 8H19.9997C16.3237 8 13.333 10.9907 13.333 14.6667V33.3333C13.333 37.0093 16.3237 40 19.9997 40H27.9997C31.6757 40 34.6663 37.0093 34.6663 33.3333V14.6667C34.6663 10.9907 31.6757 8 27.9997 8ZM25.333 36H22.6663C21.9303 36 21.333 35.4027 21.333 34.6667C21.333 33.9307 21.9303 33.3333 22.6663 33.3333H25.333C26.069 33.3333 26.6663 33.9307 26.6663 34.6667C26.6663 35.4027 26.069 36 25.333 36Z" fill="white"/>
</svg>
