<svg width="32" height="32" viewBox="0 0 32 32" fill="none" xmlns="http://www.w3.org/2000/svg">
<path d="M23.0711 7.51471L7.51472 23.0711C7.1242 23.4616 7.1242 24.0948 7.51472 24.4853C7.90525 24.8758 8.53841 24.8758 8.92894 24.4853L24.4853 8.92893C24.8758 8.5384 24.8758 7.90524 24.4853 7.51471C24.0948 7.12419 23.4616 7.12419 23.0711 7.51471Z" fill="black"/>
<path d="M8.92893 7.51471L24.4853 23.0711C24.8758 23.4616 24.8758 24.0948 24.4853 24.4853C24.0948 24.8758 23.4616 24.8758 23.0711 24.4853L7.51471 8.92893C7.12419 8.5384 7.12419 7.90524 7.51471 7.51471C7.90524 7.12419 8.5384 7.12419 8.92893 7.51471Z" fill="black"/>
</svg>
