<svg width="123" height="28" viewBox="0 0 123 28" fill="none" xmlns="http://www.w3.org/2000/svg">
<path d="M14.876 16.968V21H0.904V1.12H14.624V5.152H5.496V9.016H13.336V12.74H5.496V16.968H14.876ZM16.3777 16.604C16.3777 15.6333 16.6484 14.784 17.1897 14.056C17.7311 13.328 18.4777 12.7587 19.4297 12.348C20.3817 11.9187 21.4737 11.704 22.7057 11.704C23.3031 11.704 23.8911 11.76 24.4697 11.872C25.0484 11.9653 25.5524 12.1053 25.9817 12.292V11.648C25.9817 10.8453 25.7391 10.2293 25.2537 9.8C24.7684 9.37067 24.0311 9.156 23.0417 9.156C22.2204 9.156 21.4457 9.296 20.7177 9.576C20.0084 9.856 19.2524 10.2573 18.4497 10.78L17.1057 7.924C18.0764 7.28933 19.0844 6.81333 20.1297 6.496C21.1937 6.17867 22.3137 6.02 23.4897 6.02C25.6924 6.02 27.4004 6.552 28.6137 7.616C29.8457 8.66133 30.4617 10.1827 30.4617 12.18V16.016C30.4617 16.464 30.5271 16.7813 30.6577 16.968C30.8071 17.136 31.0591 17.2387 31.4137 17.276V21C31.0404 21.0747 30.6857 21.1307 30.3497 21.168C30.0324 21.2053 29.7524 21.224 29.5097 21.224C28.6697 21.224 28.0257 21.056 27.5777 20.72C27.1484 20.384 26.8777 19.9267 26.7657 19.348L26.6817 18.704C26.0284 19.544 25.2444 20.188 24.3297 20.636C23.4337 21.0653 22.4911 21.28 21.5017 21.28C20.5311 21.28 19.6537 21.0747 18.8697 20.664C18.1044 20.2533 17.4977 19.6933 17.0497 18.984C16.6017 18.2747 16.3777 17.4813 16.3777 16.604ZM25.2817 17.164C25.4871 16.996 25.6551 16.8093 25.7857 16.604C25.9164 16.3987 25.9817 16.2027 25.9817 16.016V14.7C25.6084 14.5507 25.1884 14.4387 24.7217 14.364C24.2737 14.2707 23.8537 14.224 23.4617 14.224C22.6404 14.224 21.9591 14.4107 21.4177 14.784C20.8764 15.1387 20.6057 15.6147 20.6057 16.212C20.6057 16.548 20.6991 16.856 20.8857 17.136C21.0724 17.416 21.3244 17.64 21.6417 17.808C21.9777 17.976 22.3697 18.06 22.8177 18.06C23.2657 18.06 23.7137 17.976 24.1617 17.808C24.6097 17.64 24.9831 17.4253 25.2817 17.164ZM39.336 21.28C38.0853 21.28 36.8626 21.0747 35.668 20.664C34.4733 20.2533 33.4653 19.6467 32.644 18.844L34.184 16.016C35.08 16.6693 35.948 17.164 36.788 17.5C37.6466 17.836 38.4493 18.004 39.196 18.004C39.7746 18.004 40.2226 17.9107 40.54 17.724C40.8573 17.5373 41.016 17.248 41.016 16.856C41.016 16.576 40.9226 16.3613 40.736 16.212C40.5493 16.044 40.26 15.8947 39.868 15.764C39.4946 15.6333 39.028 15.4933 38.468 15.344C37.348 14.9707 36.4146 14.6067 35.668 14.252C34.9213 13.8973 34.3613 13.468 33.988 12.964C33.6146 12.4413 33.428 11.7693 33.428 10.948C33.428 9.95867 33.6706 9.1 34.156 8.372C34.66 7.62533 35.3693 7.04667 36.284 6.636C37.1986 6.22533 38.2906 6.02 39.56 6.02C40.568 6.02 41.548 6.17867 42.5 6.496C43.4706 6.81333 44.376 7.34533 45.216 8.092L43.48 10.892C42.64 10.3133 41.8933 9.89333 41.24 9.632C40.5866 9.37067 39.952 9.24 39.336 9.24C39.0186 9.24 38.7293 9.27733 38.468 9.352C38.2066 9.42667 37.992 9.55733 37.824 9.744C37.6746 9.912 37.6 10.136 37.6 10.416C37.6 10.696 37.6746 10.92 37.824 11.088C37.992 11.256 38.244 11.4053 38.58 11.536C38.9346 11.648 39.3733 11.788 39.896 11.956C41.1093 12.3107 42.1173 12.6747 42.92 13.048C43.7226 13.4027 44.32 13.8507 44.712 14.392C45.1226 14.9147 45.328 15.6147 45.328 16.492C45.328 17.9853 44.7866 19.1613 43.704 20.02C42.64 20.86 41.184 21.28 39.336 21.28ZM47.3278 23.212C47.7011 23.324 48.0464 23.408 48.3638 23.464C48.6998 23.5387 48.9984 23.576 49.2598 23.576C49.6144 23.576 49.9131 23.492 50.1558 23.324C50.4171 23.1747 50.6411 22.904 50.8278 22.512C51.0144 22.1387 51.1824 21.6347 51.3318 21L45.7318 6.3H50.3518L53.7678 16.408L56.6798 6.3H60.9078L55.3078 23.38C55.0464 24.1827 54.6451 24.892 54.1038 25.508C53.5624 26.124 52.9091 26.6 52.1438 26.936C51.3784 27.2907 50.5384 27.468 49.6238 27.468C49.2318 27.468 48.8491 27.4307 48.4758 27.356C48.1024 27.3 47.7198 27.1973 47.3278 27.048V23.212Z" fill="#0C0B0E"/>
<path d="M69.2529 1.148H73.4809L75.5529 7.504L77.6249 1.148H81.8809L78.4929 10.388L80.5089 15.68L85.4929 1.12H90.5049L82.7489 21H78.7729L75.5529 13.216L72.3609 21H68.3569L60.6289 1.12H65.6129L70.6249 15.68L72.5849 10.388L69.2529 1.148ZM96.9 21.28C95.6494 21.28 94.5387 21.084 93.568 20.692C92.5974 20.2813 91.7667 19.7307 91.076 19.04C90.404 18.3493 89.8907 17.556 89.536 16.66C89.1814 15.7453 89.004 14.7933 89.004 13.804C89.004 12.3853 89.312 11.0973 89.928 9.94C90.5627 8.764 91.468 7.82133 92.644 7.112C93.82 6.384 95.2387 6.02 96.9 6.02C98.5614 6.02 99.9707 6.37467 101.128 7.084C102.304 7.79333 103.2 8.72667 103.816 9.884C104.432 11.0227 104.74 12.264 104.74 13.608C104.74 13.8693 104.721 14.1307 104.684 14.392C104.665 14.6347 104.647 14.8493 104.628 15.036H93.764C93.82 15.6893 93.9974 16.24 94.296 16.688C94.6134 17.136 95.0147 17.4813 95.5 17.724C95.9854 17.948 96.4987 18.06 97.04 18.06C97.712 18.06 98.3374 17.9013 98.916 17.584C99.5134 17.2667 99.924 16.8373 100.148 16.296L103.956 17.36C103.583 18.1253 103.051 18.8067 102.36 19.404C101.688 19.9827 100.885 20.44 99.952 20.776C99.0374 21.112 98.02 21.28 96.9 21.28ZM93.652 12.292H100.036C99.9614 11.676 99.784 11.144 99.504 10.696C99.224 10.2293 98.8507 9.87467 98.384 9.632C97.9174 9.37067 97.404 9.24 96.844 9.24C96.2654 9.24 95.7427 9.37067 95.276 9.632C94.828 9.87467 94.464 10.2293 94.184 10.696C93.904 11.144 93.7267 11.676 93.652 12.292ZM115.59 21.28C114.47 21.28 113.49 21.0467 112.65 20.58C111.81 20.0947 111.148 19.4227 110.662 18.564V21H106.77V0.559999H111.25V8.708C111.736 7.84933 112.38 7.18667 113.182 6.72C114.004 6.25333 114.965 6.02 116.066 6.02C117 6.02 117.849 6.22533 118.614 6.636C119.398 7.028 120.07 7.57867 120.63 8.288C121.209 8.97867 121.657 9.79067 121.974 10.724C122.292 11.6387 122.45 12.6373 122.45 13.72C122.45 14.784 122.273 15.7733 121.918 16.688C121.582 17.6027 121.106 18.4053 120.49 19.096C119.874 19.7867 119.146 20.328 118.306 20.72C117.485 21.0933 116.58 21.28 115.59 21.28ZM114.33 17.5C114.834 17.5 115.301 17.4067 115.73 17.22C116.178 17.0147 116.561 16.744 116.878 16.408C117.196 16.072 117.438 15.68 117.606 15.232C117.774 14.7653 117.858 14.2613 117.858 13.72C117.858 13.0293 117.718 12.3853 117.438 11.788C117.158 11.1907 116.766 10.7147 116.262 10.36C115.777 10.0053 115.208 9.828 114.554 9.828C114.088 9.828 113.64 9.94 113.21 10.164C112.781 10.388 112.398 10.696 112.062 11.088C111.726 11.4613 111.456 11.8907 111.25 12.376V15.456C111.4 15.7733 111.586 16.0627 111.81 16.324C112.034 16.5667 112.277 16.772 112.538 16.94C112.818 17.108 113.108 17.248 113.406 17.36C113.724 17.4533 114.032 17.5 114.33 17.5Z" fill="#004EFF"/>
</svg>
