<svg width="24" height="25" viewBox="0 0 24 25" fill="none" xmlns="http://www.w3.org/2000/svg">
<path d="M22.9578 6.5L15.2413 14.215C14.3809 15.073 13.2153 15.5549 12 15.5549C10.7847 15.5549 9.61908 15.073 8.75867 14.215L1.04217 6.5C1.02933 6.6448 1 6.77586 1 6.91975V17.9176C1.00146 19.1325 1.48481 20.2972 2.34403 21.1562C3.20326 22.0153 4.3682 22.4985 5.58333 22.5H18.4167C19.6318 22.4985 20.7967 22.0153 21.656 21.1562C22.5152 20.2972 22.9985 19.1325 23 17.9176V6.91975C23 6.77586 22.9707 6.6448 22.9578 6.5Z" fill="#004EFF"/>
<path d="M13.8852 12.7239L22 4.63492C21.6069 3.98525 21.0525 3.44751 20.3902 3.07356C19.7279 2.69961 18.9801 2.50207 18.2189 2.5H5.78109C5.01992 2.50207 4.27212 2.69961 3.60983 3.07356C2.94754 3.44751 2.3931 3.98525 2 4.63492L10.1148 12.7239C10.6155 13.2209 11.2933 13.5 12 13.5C12.7067 13.5 13.3845 13.2209 13.8852 12.7239Z" fill="#004EFF"/>
</svg>
