<svg width="24" height="25" viewBox="0 0 24 25" fill="none" xmlns="http://www.w3.org/2000/svg">
<g clip-path="url(#clip0_2048_135)">
<path fill-rule="evenodd" clip-rule="evenodd" d="M12 0.5C5.373 0.5 0 5.873 0 12.5C0 19.127 5.373 24.5 12 24.5C18.627 24.5 24 19.127 24 12.5C24 5.873 18.627 0.5 12 0.5ZM17.562 8.661C17.382 10.558 16.6 15.163 16.203 17.288C16.035 18.188 15.703 18.489 15.383 18.518C14.686 18.582 14.157 18.057 13.482 17.615C12.426 16.923 11.829 16.492 10.804 15.816C9.619 15.035 10.387 14.606 11.062 13.905C11.239 13.721 14.309 10.928 14.369 10.675C14.376 10.643 14.384 10.525 14.313 10.463C14.242 10.401 14.139 10.422 14.065 10.439C13.959 10.463 12.272 11.578 9.003 13.784C8.524 14.113 8.09 14.273 7.701 14.265C7.273 14.256 6.449 14.023 5.836 13.823C5.085 13.579 4.487 13.449 4.539 13.035C4.566 12.819 4.863 12.598 5.431 12.372C8.929 10.848 11.262 9.843 12.429 9.357C15.762 7.971 16.454 7.73 16.906 7.722C17.472 7.714 17.608 8.181 17.562 8.661Z" fill="#004EFF"/>
</g>
<defs>
<clipPath id="clip0_2048_135">
<rect width="24" height="24" fill="white" transform="translate(0 0.5)"/>
</clipPath>
</defs>
</svg>
