<svg width="24" height="24" viewBox="0 0 24 24" fill="none" xmlns="http://www.w3.org/2000/svg">
<path d="M8.87705 14.1205L13.4671 18.7106C13.6544 18.8968 13.9079 19.0013 14.1721 19.0013C14.4362 19.0013 14.6897 18.8968 14.8771 18.7106C14.9708 18.6176 15.0452 18.507 15.0959 18.3851C15.1467 18.2633 15.1729 18.1326 15.1729 18.0006C15.1729 17.8685 15.1467 17.7378 15.0959 17.616C15.0452 17.4941 14.9708 17.3835 14.8771 17.2906L10.2771 12.7105C10.1833 12.6176 10.1089 12.507 10.0582 12.3851C10.0074 12.2633 9.98126 12.1326 9.98126 12.0005C9.98126 11.8685 10.0074 11.7378 10.0582 11.616C10.1089 11.4941 10.1833 11.3835 10.2771 11.2905L14.8771 6.71055C15.0654 6.52357 15.1717 6.26945 15.1726 6.00409C15.1735 5.73872 15.069 5.48385 14.8821 5.29555C14.6951 5.10725 14.441 5.00093 14.1756 4.99999C13.9102 4.99906 13.6554 5.10357 13.4671 5.29055L8.87705 9.88055C8.31525 10.4431 7.99969 11.2055 7.99969 12.0005C7.99969 12.7956 8.31525 13.558 8.87705 14.1205Z" fill="#7288A5"/>
</svg>
