<svg width="24" height="24" viewBox="0 0 24 24" fill="none" xmlns="http://www.w3.org/2000/svg">
<path d="M15.2958 14.1207L10.7058 18.7107C10.5184 18.8969 10.265 19.0015 10.0008 19.0015C9.73661 19.0015 9.48316 18.8969 9.2958 18.7107C9.20207 18.6177 9.12768 18.5071 9.07691 18.3852C9.02614 18.2634 9 18.1327 9 18.0007C9 17.8687 9.02614 17.738 9.07691 17.6161C9.12768 17.4942 9.20207 17.3836 9.2958 17.2907L13.8958 12.7107C13.9895 12.6177 14.0639 12.5071 14.1147 12.3852C14.1655 12.2634 14.1916 12.1327 14.1916 12.0007C14.1916 11.8687 14.1655 11.738 14.1147 11.6161C14.0639 11.4942 13.9895 11.3836 13.8958 11.2907L9.2958 6.71067C9.10749 6.52369 9.00118 6.26957 9.00024 6.00421C8.9993 5.73884 9.10382 5.48398 9.2908 5.29567C9.47778 5.10737 9.7319 5.00105 9.99726 5.00012C10.2626 4.99918 10.5175 5.1037 10.7058 5.29067L15.2958 9.88067C15.8576 10.4432 16.1732 11.2057 16.1732 12.0007C16.1732 12.7957 15.8576 13.5582 15.2958 14.1207Z" fill="#7288A5"/>
</svg>
